<svg width="35" height="32" viewBox="0 0 35 32" fill="none" xmlns="http://www.w3.org/2000/svg">
<path d="M20.5813 20.2505L19.3907 21.5119C21.8944 23.8099 23.3914 26.9201 23.6103 30.2635H19.9422C19.9072 29.8661 19.8459 29.46 19.7583 29.0713C19.3994 27.4644 18.6203 25.9698 17.491 24.743L16.1953 25.9093C17.1145 26.9114 17.7536 28.1382 18.0512 29.4514C18.1738 30.0043 18.2351 30.5745 18.2351 31.1361V32H25.3874V31.1361C25.3874 30.8337 25.3787 30.5227 25.3524 30.1944C25.116 26.3844 23.4264 22.8596 20.5813 20.2505Z" fill="#00FF66"/>
<path d="M5.69035 19.3089C5.97924 18.9978 6.30315 18.7041 6.63582 18.4449C7.7914 17.5551 9.16583 17.0022 10.6191 16.838C11.1181 16.7862 11.6171 16.7775 12.1073 16.8121C13.044 16.8812 13.9545 17.1145 14.8037 17.5032C15.0138 17.5983 15.2151 17.7019 15.4165 17.8143L16.2831 16.311C16.038 16.1728 15.7929 16.0432 15.539 15.9309C14.4972 15.4557 13.3854 15.1706 12.2386 15.0842C11.6433 15.041 11.0305 15.0497 10.4265 15.1188C8.64933 15.3175 6.96848 15.9914 5.55903 17.0799C5.38394 17.2095 5.21761 17.3564 5.05128 17.5032L2.45998 14.946C3.87819 13.6501 5.58529 12.6652 7.41496 12.0864C8.02776 11.8963 8.65808 11.7408 9.28839 11.6371C10.8117 11.3866 12.3874 11.3952 13.8932 11.6631L14.2084 9.96112C12.5013 9.65875 10.7241 9.64147 9.00826 9.92657C8.2904 10.0475 7.58129 10.2203 6.8897 10.4363C4.77114 11.1102 2.79265 12.2678 1.16433 13.7797C0.962982 13.9611 0.77914 14.1512 0.595298 14.3413L0 14.9633L5.06878 19.9654L5.69035 19.3089Z" fill="#00FF66"/>
<path d="M29.931 9.92657L29.3094 10.5918C29.0205 10.9028 28.6966 11.1966 28.364 11.4557C27.2084 12.3456 25.8339 12.8985 24.3807 13.0626C23.8817 13.1145 23.3827 13.1231 22.8925 13.0886C21.7194 13.0022 20.6076 12.6652 19.5833 12.0864C19.3645 11.9655 19.1456 11.8272 18.9443 11.6804L17.9375 13.0886C18.1914 13.2613 18.454 13.4341 18.7166 13.581C19.9685 14.2894 21.3254 14.6955 22.7612 14.8078C23.3565 14.851 23.9693 14.8423 24.5733 14.7732C26.3505 14.5745 28.0313 13.9007 29.4408 12.8121C29.6158 12.6825 29.7822 12.5356 29.9485 12.3888L32.5398 14.946C31.1216 16.2419 29.4145 17.2268 27.5848 17.8056C26.972 17.9957 26.3417 18.1512 25.7114 18.2549C24.1881 18.5054 22.6123 18.4968 21.1066 18.229C20.7389 18.1598 20.3625 18.0821 19.9948 17.9784L19.5396 19.6458C19.9598 19.7581 20.38 19.8531 20.8002 19.9309C21.6844 20.0864 22.5948 20.1728 23.4965 20.1728C24.3282 20.1728 25.1774 20.1037 26.0003 19.9655C26.7181 19.8445 27.4272 19.6717 28.1188 19.4557C30.2374 18.7819 32.2159 17.6242 33.8442 16.1123C34.0456 15.9309 34.2294 15.7408 34.4132 15.5508L34.9998 14.9374L29.931 9.92657Z" fill="#00FF66"/>
<path d="M14.5143 19.2397C14.1554 20.4406 13.6126 21.581 12.921 22.635C12.4133 23.4039 11.8267 24.121 11.1701 24.7603C9.20041 26.7041 6.70542 27.9741 3.97405 28.4233C3.52758 28.4924 3.0811 28.5443 2.63463 28.5788V24.9676C2.70466 24.959 2.76595 24.959 2.83598 24.9503C4.99831 24.7171 7.04684 23.7408 8.58761 22.2203C9.42803 21.3909 10.1021 20.4233 10.5836 19.3434L8.98155 18.6436C8.58761 19.5248 8.03608 20.311 7.34448 20.9935C6.08385 22.2376 4.41177 23.0324 2.63463 23.2311C2.33698 23.2657 2.03933 23.2829 1.75044 23.2829H0.875V27.2657V29.149V30.3413L1.69791 30.3499H1.75044C2.5821 30.3499 3.43128 30.2808 4.25419 30.1426C7.35324 29.6328 10.1721 28.1987 12.4045 25.9957C13.1399 25.27 13.8052 24.4579 14.383 23.594C15.1709 22.4017 15.7749 21.1058 16.1864 19.7495L14.5143 19.2397Z" fill="#00FF66"/>
<path d="M21.0542 10.4536C23.9782 10.4536 26.3506 8.11231 26.3506 5.22678C26.3506 2.34125 23.9782 0 21.0542 0C18.1302 0 15.7578 2.34125 15.7578 5.22678C15.7578 8.11231 18.1302 10.4536 21.0542 10.4536ZM21.0542 1.72786C23.0064 1.72786 24.5997 3.30022 24.5997 5.22678C24.5997 7.15335 23.0064 8.7257 21.0542 8.7257C19.102 8.7257 17.5087 7.16199 17.5087 5.22678C17.5087 3.29158 19.102 1.72786 21.0542 1.72786Z" fill="#00FF66"/>
</svg>
