<svg width="26" height="26" viewBox="0 0 26 26" fill="none" xmlns="http://www.w3.org/2000/svg">
<path d="M1 0C0.447715 0 0 0.447715 0 1C0 1.55228 0.447715 2 1 2V0ZM4 1L4.96 0.72C4.83556 0.293333 4.44444 0 4 0V1ZM9.25 19L8.29 19.28C8.42908 19.7568 8.89709 20.0593 9.38899 19.9903L9.25 19ZM22.75 17.1053L22.889 18.0956C23.3105 18.0364 23.6483 17.7169 23.731 17.2994L22.75 17.1053ZM25 5.73684L25.981 5.93099C26.0391 5.63744 25.9627 5.33331 25.7727 5.10208C25.5828 4.87085 25.2992 4.73684 25 4.73684V5.73684ZM1 2H4V0H1V2ZM9.38899 19.9903L22.889 18.0956L22.611 16.115L9.11101 18.0097L9.38899 19.9903ZM23.731 17.2994L25.981 5.93099L24.019 5.54269L21.769 16.9111L23.731 17.2994ZM3.04 1.28L4.42158 6.01684L6.34158 5.45684L4.96 0.72L3.04 1.28ZM4.42158 6.01684L8.29 19.28L10.21 18.72L6.34158 5.45684L4.42158 6.01684ZM25 4.73684H5.38158V6.73684H25V4.73684Z" fill="white"/>
<circle cx="8" cy="24" r="2" fill="white"/>
<circle cx="20" cy="24" r="2" fill="white"/>
</svg>
