<svg width="23" height="24" viewBox="0 0 23 24" fill="none" xmlns="http://www.w3.org/2000/svg">
<path d="M11.0093 14.7027C12.502 14.7027 13.712 13.4927 13.712 12C13.712 10.5073 12.502 9.2973 11.0093 9.2973C9.51668 9.2973 8.30664 10.5073 8.30664 12C8.30664 13.4927 9.51668 14.7027 11.0093 14.7027Z" stroke="white" stroke-width="2" stroke-miterlimit="10" stroke-linecap="round" stroke-linejoin="round"/>
<path d="M13.8918 3.31531C14.4504 4.57658 15.7477 5.31531 17.099 5.17117C19.8197 4.88288 21.5855 7.94595 19.9639 10.1441C19.1531 11.2432 19.1531 12.7568 19.9639 13.8559C21.5675 16.0541 19.8017 19.1351 17.099 18.8288C15.7296 18.6847 14.4324 19.4234 13.8918 20.6847C12.7927 23.1892 9.24316 23.1892 8.14406 20.6847C7.58551 19.4234 6.28821 18.6847 4.93686 18.8288C2.21614 19.1171 0.450371 16.0541 2.07199 13.8559C2.8828 12.7568 2.8828 11.2432 2.07199 10.1441C0.468389 7.94595 2.23415 4.86486 4.93686 5.17117C6.30623 5.31531 7.60352 4.57658 8.14406 3.31531C9.24316 0.810809 12.7927 0.810809 13.8918 3.31531Z" stroke="white" stroke-width="2" stroke-miterlimit="10" stroke-linecap="round" stroke-linejoin="round"/>
</svg>
